<?xml version="1.0" encoding="UTF-8"?>
<svg version="1.1" xmlns="http://www.w3.org/2000/svg" width="1080" height="1080">
<path d="M0 0 C272.91 0 545.82 0 827 0 C827 66.66 827 133.32 827 202 C554.09 202 281.18 202 0 202 C0 135.34 0 68.68 0 0 Z " fill="#545454" transform="translate(6,796)"/>
<path d="M0 0 C272.91 0 545.82 0 827 0 C827 66.66 827 133.32 827 202 C554.09 202 281.18 202 0 202 C0 135.34 0 68.68 0 0 Z " fill="#545454" transform="translate(247,82)"/>
<path d="M0 0 C66.66 0 133.32 0 202 0 C202 222.75 202 445.5 202 675 C135.34 675 68.68 675 0 675 C0 452.25 0 229.5 0 0 Z " fill="#000000" transform="translate(872,323)"/>
<path d="M0 0 C66.66 0 133.32 0 202 0 C202 222.75 202 445.5 202 675 C135.34 675 68.68 675 0 675 C0 452.25 0 229.5 0 0 Z " fill="#000000" transform="translate(6,82)"/>
</svg>
